<?xml version="1.0" encoding="UTF-8" standalone="no"?>
<!-- Created with Inkscape (http://www.inkscape.org/) -->

<svg
   width="210mm"
   height="297mm"
   viewBox="0 0 210 297"
   version="1.1"
   id="svg2358"
   inkscape:version="1.1.1 (eb90963e84, 2021-10-02)"
   sodipodi:docname="account.svg"
   inkscape:export-filename="/home/smurphy-makaluza/Downloads/account.png"
   inkscape:export-xdpi="96"
   inkscape:export-ydpi="96"
   xmlns:inkscape="http://www.inkscape.org/namespaces/inkscape"
   xmlns:sodipodi="http://sodipodi.sourceforge.net/DTD/sodipodi-0.dtd"
   xmlns="http://www.w3.org/2000/svg"
   xmlns:svg="http://www.w3.org/2000/svg">
  <sodipodi:namedview
     id="namedview2360"
     pagecolor="#ffffff"
     bordercolor="#666666"
     borderopacity="1.0"
     inkscape:pageshadow="2"
     inkscape:pageopacity="0.0"
     inkscape:pagecheckerboard="0"
     inkscape:document-units="mm"
     showgrid="false"
     inkscape:zoom="0.54115914"
     inkscape:cx="396.37139"
     inkscape:cy="601.48666"
     inkscape:window-width="1440"
     inkscape:window-height="874"
     inkscape:window-x="0"
     inkscape:window-y="0"
     inkscape:window-maximized="1"
     inkscape:current-layer="layer1" />
  <defs
     id="defs2355" />
  <g
     inkscape:label="Layer 1"
     inkscape:groupmode="layer"
     id="layer1">
    <path
       style="fill:#000000;stroke:#000000;stroke-width:0.264583px;stroke-linecap:butt;stroke-linejoin:miter;stroke-opacity:1"
       d="m 89.646896,127.52592 1.236065,-2.90413 1.051803,-1.73422 1.328703,-1.47638 1.620563,-1.57008 2.182571,-1.5241 1.713884,-0.8577 2.905715,-0.91348 2.98709,-0.38158 2.27152,0.15874 2.78566,0.46752 2.79223,1.16283 2.13004,1.34535 2.20938,2.03834 1.36235,1.65619 1.90934,3.47237 0.82825,2.82798 0.38946,2.61062 -0.0912,2.95686 -0.50667,2.73814 -1.26479,3.206 -1.60015,2.47528 -3.24649,3.1257 -1.97472,1.18569 -1.74821,0.81617 -2.05118,0.58693 -1.28737,0.36538 -2.76552,0.0909 -2.0654,-0.0836 -1.4096,-0.2899 -1.15037,-0.36572 -1.887112,-0.7105 -2.305323,-1.19067 -1.954173,-1.7768 -2.353659,-2.50012 -1.64938,-3.07801 -0.920565,-3.1006 -0.4069,-2.40123 0.02334,-2.95698 0.273386,-1.82787 z"
       id="path2465" />
    <path
       style="fill:#000000;stroke:#000000;stroke-width:0.264583px;stroke-linecap:butt;stroke-linejoin:miter;stroke-opacity:1"
       d="m 96.257106,152.03133 17.447844,7.9e-4 2.21253,0.39214 3.96244,1.2954 3.85668,2.1628 3.08646,2.70059 2.28692,2.98345 1.80449,3.56236 1.27769,3.91968 0.37033,3.77077 0.0128,3.55208 -0.93926,1.37812 -2.08518,1.19505 -5.88165,1.1076 -3.6697,0.14122 -4.03656,0.0777 -6.22887,0.003 -12.564001,-0.018 -6.385176,-0.10129 -3.19496,-0.0752 -2.625514,-0.24526 -2.178925,-0.40522 -2.336911,-0.63633 -2.080173,-1.07345 -0.641136,-0.70943 -0.369366,-2.11221 0.196943,-3.49289 0.537355,-3.07609 1.221785,-3.54039 1.488173,-2.88946 1.732108,-2.36349 2.339287,-2.40856 1.428676,-1.14395 2.15283,-1.45601 2.15664,-0.9839 2.288839,-0.78683 2.301835,-0.51557 z"
       id="path2467" />
  </g>
</svg>
